<?xml version="1.0" encoding="UTF-8" standalone="no"?>
<svg
   xmlns:dc="http://purl.org/dc/elements/1.1/"
   xmlns:cc="http://creativecommons.org/ns#"
   xmlns:rdf="http://www.w3.org/1999/02/22-rdf-syntax-ns#"
   xmlns:svg="http://www.w3.org/2000/svg"
   xmlns="http://www.w3.org/2000/svg"
   xmlns:sodipodi="http://sodipodi.sourceforge.net/DTD/sodipodi-0.dtd"
   xmlns:inkscape="http://www.inkscape.org/namespaces/inkscape"
   width="210mm"
   height="297mm"
   viewBox="0 0 210 297"
   version="1.1"
   id="svg8"
   inkscape:version="1.0.1 (c497b03c, 2020-09-10)"
   sodipodi:docname="global_energy_matter_balance.svg">
  <defs
     id="defs2">
    <marker
       style="overflow:visible;"
       id="marker1268"
       refX="0.0"
       refY="0.0"
       orient="auto"
       inkscape:stockid="Arrow1Mend"
       inkscape:isstock="true">
      <path
         transform="scale(0.4) rotate(180) translate(10,0)"
         style="fill-rule:evenodd;stroke:#000000;stroke-width:1pt;stroke-opacity:1;fill:#000000;fill-opacity:1"
         d="M 0.0,0.0 L 5.0,-5.0 L -12.5,0.0 L 5.0,5.0 L 0.0,0.0 z "
         id="path1266" />
    </marker>
    <marker
       style="overflow:visible;"
       id="Arrow1Mend"
       refX="0.0"
       refY="0.0"
       orient="auto"
       inkscape:stockid="Arrow1Mend"
       inkscape:isstock="true"
       inkscape:collect="always">
      <path
         transform="scale(0.4) rotate(180) translate(10,0)"
         style="fill-rule:evenodd;stroke:#ae968b;stroke-width:1pt;stroke-opacity:1;fill:#b955a5;fill-opacity:1"
         d="M 0.0,0.0 L 5.0,-5.0 L -12.5,0.0 L 5.0,5.0 L 0.0,0.0 z "
         id="path935" />
    </marker>
    <marker
       style="overflow:visible;"
       id="Arrow2Lend"
       refX="0.0"
       refY="0.0"
       orient="auto"
       inkscape:stockid="Arrow2Lend"
       inkscape:isstock="true">
      <path
         transform="scale(1.1) rotate(180) translate(1,0)"
         d="M 8.7185878,4.0337352 L -2.2072895,0.016013256 L 8.7185884,-4.0017078 C 6.9730900,-1.6296469 6.9831476,1.6157441 8.7185878,4.0337352 z "
         style="fill-rule:evenodd;stroke-width:0.625;stroke-linejoin:round;stroke:#000000;stroke-opacity:1;fill:#000000;fill-opacity:1"
         id="path947" />
    </marker>
  </defs>
  <sodipodi:namedview
     id="base"
     pagecolor="#ffffff"
     bordercolor="#666666"
     borderopacity="1.0"
     inkscape:pageopacity="0.0"
     inkscape:pageshadow="2"
     inkscape:zoom="0.5"
     inkscape:cx="62.68675"
     inkscape:cy="73.419254"
     inkscape:document-units="mm"
     inkscape:current-layer="layer2"
     inkscape:document-rotation="0"
     showgrid="false"
     showborder="false"
     inkscape:window-width="2048"
     inkscape:window-height="1152"
     inkscape:window-x="0"
     inkscape:window-y="0"
     inkscape:window-maximized="0" />
  <metadata
     id="metadata5">
    <rdf:RDF>
      <cc:Work
         rdf:about="">
        <dc:format>image/svg+xml</dc:format>
        <dc:type
           rdf:resource="http://purl.org/dc/dcmitype/StillImage" />
        <dc:title></dc:title>
      </cc:Work>
    </rdf:RDF>
  </metadata>
  <g
     inkscape:groupmode="layer"
     id="layer2"
     inkscape:label="main"
     style="display:inline">
    <path
       id="path852"
       style="fill:#9fed69;fill-opacity:1;stroke:#c76642;stroke-width:11.3386;stroke-linecap:round;stroke-miterlimit:4;stroke-dasharray:none;stroke-opacity:1"
       d="M -256.01562,-106 A 314.00001,314.00001 0 0 0 -570,208 314.00001,314.00001 0 0 0 -256,522 314.00001,314.00001 0 0 0 58,208 a 314.00001,314.00001 0 0 0 -314,-314 314.00001,314.00001 0 0 0 -0.0156,0 z M -256,-38 A 246.00001,246.00001 0 0 1 -10,208 246.00001,246.00001 0 0 1 -256,454 246.00001,246.00001 0 0 1 -502,208 246.00001,246.00001 0 0 1 -256,-38 Z"
       transform="scale(0.26458333)" />
    <path
       style="fill:none;stroke:#000000;stroke-width:0.264583px;stroke-linecap:butt;stroke-linejoin:miter;stroke-opacity:1"
       d="m 18.460109,101.03613 16.976708,8.57077 -4.120559,3.13163 19.119397,5.43913 -4.285382,3.46127 24.723362,10.87828 -36.755398,-1.64822 5.603963,-3.95574 -23.899249,-1.64822 6.098429,-5.43914 -24.2288937,-1.64823 z"
       id="path848" />
    <path
       style="fill:#f5be37;fill-opacity:1;stroke:#000000;stroke-width:1;stroke-linecap:butt;stroke-linejoin:miter;stroke-miterlimit:4;stroke-dasharray:none;stroke-opacity:1"
       d="m 33.961701,-28.207107 -10.513002,8.557164 3.378498,1.475541 -12.50828,6.765283 3.546059,1.6738695 -15.5645579,11.3689711 25.4433739,-7.0019757 -4.546651,-1.800018 16.452445,-4.9458109 -5.127777,-2.732043 16.682978,-4.99854 z"
       id="path860" />
    <path
       style="fill:none;stroke:#000000;stroke-width:0.264583px;stroke-linecap:butt;stroke-linejoin:miter;stroke-opacity:1"
       d="m 18.460109,101.03613 16.976708,8.57077 -4.120559,3.13163 19.119397,5.43913 -4.285382,3.46127 24.723362,10.87828 -36.755398,-1.64822 5.603963,-3.95574 -23.899249,-1.64822 6.098429,-5.43914 -24.2288937,-1.64823 z"
       id="path862" />
    <path
       style="fill:none;stroke:#000000;stroke-width:0.264583px;stroke-linecap:butt;stroke-linejoin:miter;stroke-opacity:1"
       d="m 18.460109,101.03613 16.976708,8.57077 -4.120559,3.13163 19.119397,5.43913 -4.285382,3.46127 24.723362,10.87828 -36.755398,-1.64822 5.603963,-3.95574 -23.899249,-1.64822 6.098429,-5.43914 -24.2288937,-1.64823 z"
       id="path864" />
    <path
       style="fill:#a3a3a3;fill-opacity:1;stroke:#000000;stroke-width:1;stroke-linecap:butt;stroke-linejoin:miter;stroke-miterlimit:4;stroke-dasharray:none;stroke-opacity:1"
       d="m 18.460109,101.03613 16.976708,8.57077 -4.120559,3.13163 19.119397,5.43913 -4.285382,3.46127 24.723362,10.87828 -36.755398,-1.64822 5.603963,-3.95574 -23.899249,-1.64822 6.098429,-5.43914 -24.2288937,-1.64823 z"
       id="path866" />
    <path
       style="fill:#9f90b9;fill-opacity:1;stroke:#000000;stroke-width:0.5;stroke-linecap:butt;stroke-linejoin:miter;stroke-miterlimit:4;stroke-dasharray:none;stroke-opacity:1"
       d="m -157.3115,101.74587 2.28767,-2.153668 0.30823,0.531208 1.87834,-2.432348 0.35441,0.5528 3.06591,-3.13902 -2.15166,4.69032 -0.36895,-0.72196 -1.49457,3.048818 -0.58945,-0.78751 -1.51143,3.09091 z"
       id="path868" />
    <path
       style="fill:#b44932;fill-opacity:1;stroke:#000000;stroke-width:0.5;stroke-linecap:butt;stroke-linejoin:miter;stroke-miterlimit:4;stroke-dasharray:none;stroke-opacity:1"
       d="m -38.50015,15.519254 2.272454,-2.169708 0.311962,0.529017 1.861173,-2.4455 0.358292,0.550291 3.04374,-3.1605265 -2.118594,4.7053535 -0.374022,-0.719345 -1.473074,3.059254 -0.594978,-0.783342 -1.489637,3.101472 z"
       id="path870" />
    <text
       xml:space="preserve"
       style="font-style:normal;font-weight:normal;font-size:9.87778px;line-height:1.25;font-family:sans-serif;fill:#b44932;fill-opacity:1;stroke:none;stroke-width:0.264583"
       x="-87.841675"
       y="16.404165"
       id="text876"><tspan
         sodipodi:role="line"
         id="tspan874"
         x="-87.841675"
         y="16.404165"
         style="font-style:normal;font-variant:normal;font-weight:normal;font-stretch:normal;font-size:9.87778px;font-family:Arial;-inkscape-font-specification:Arial;fill:#b44932;fill-opacity:1;stroke-width:0.264583">Geothermy</tspan></text>
    <text
       xml:space="preserve"
       style="font-style:normal;font-weight:normal;font-size:9.87777999999999956px;line-height:0;font-family:sans-serif;fill:#f5be37;fill-opacity:1;stroke:none;stroke-width:0.264583;"
       x="14.816659"
       y="10.58333"
       id="text880"><tspan
         sodipodi:role="line"
         id="tspan878"
         x="14.816659"
         y="10.58333"
         style="font-style:normal;font-variant:normal;font-weight:normal;font-stretch:normal;font-size:8.46667000000000058px;line-height:1;font-family:Arial;-inkscape-font-specification:Arial;fill:#f5be37;fill-opacity:1;stroke-width:0.264583;">Solar flow</tspan><tspan
         sodipodi:role="line"
         x="14.816659"
         y="19.049999"
         style="font-style:normal;font-variant:normal;font-weight:normal;font-stretch:normal;font-size:8.46667000000000058px;line-height:1;font-family:Arial;-inkscape-font-specification:Arial;fill:#f5be37;fill-opacity:1;stroke-width:0.264583;"
         id="tspan882">Mostly visible light</tspan></text>
    <text
       xml:space="preserve"
       style="font-style:normal;font-weight:normal;font-size:10.5833px;line-height:1.25;font-family:sans-serif;fill:#000000;fill-opacity:1;stroke:none;stroke-width:0.264583"
       x="74.083336"
       y="76.199997"
       id="text886"><tspan
         sodipodi:role="line"
         id="tspan884"
         x="74.083336"
         y="76.199997"
         style="stroke-width:0.264583"> </tspan></text>
    <text
       xml:space="preserve"
       style="font-style:normal;font-weight:normal;font-size:9.87778px;line-height:0;font-family:sans-serif;fill:#a3a3a3;fill-opacity:1;stroke:none;stroke-width:0.264583"
       x="19.049992"
       y="87.841667"
       id="text892"><tspan
         sodipodi:role="line"
         id="tspan888"
         x="19.049992"
         y="87.841667"
         style="font-style:normal;font-variant:normal;font-weight:normal;font-stretch:normal;font-size:8.46667px;line-height:1;font-family:Arial;-inkscape-font-specification:Arial;fill:#a3a3a3;fill-opacity:1;stroke-width:0.264583">Heat flow</tspan><tspan
         sodipodi:role="line"
         x="19.049992"
         y="96.308334"
         style="font-style:normal;font-variant:normal;font-weight:normal;font-stretch:normal;font-size:8.46667px;line-height:1;font-family:Arial;-inkscape-font-specification:Arial;fill:#a3a3a3;fill-opacity:1;stroke-width:0.264583"
         id="tspan890">Mostly infred light</tspan></text>
    <text
       xml:space="preserve"
       style="font-style:normal;font-weight:normal;font-size:10.5833px;line-height:1.25;font-family:sans-serif;fill:#000000;fill-opacity:1;stroke:none;stroke-width:0.264583"
       x="97.895836"
       y="127"
       id="text896"><tspan
         sodipodi:role="line"
         id="tspan894"
         x="97.895836"
         y="127"
         style="stroke-width:0.264583"> </tspan></text>
    <text
       xml:space="preserve"
       style="font-style:normal;font-weight:normal;font-size:9.87778px;line-height:1.25;font-family:sans-serif;fill:#9f90b9;fill-opacity:1;stroke:none;stroke-width:0.264583"
       x="-167.74593"
       y="116.41666"
       id="text900"><tspan
         sodipodi:role="line"
         x="-167.74593"
         y="116.41666"
         style="font-style:normal;font-variant:normal;font-weight:normal;font-stretch:normal;font-size:9.87778px;font-family:Arial;-inkscape-font-specification:Arial;fill:#9f90b9;fill-opacity:1;stroke-width:0.264583"
         id="tspan910">Tide</tspan></text>
    <path
       style="fill:#b955a5;fill-opacity:1;stroke:#000000;stroke-width:0.500002;stroke-linecap:butt;stroke-linejoin:miter;stroke-miterlimit:4;stroke-dasharray:none;stroke-opacity:1"
       d="m -51.820621,-15.363898 3.833917,-1.572244 0.07616,0.405351 3.503956,-1.789884 0.118673,0.422508 5.273676,-2.296996 -5.034723,3.481056 -0.04499,-0.549912 -3.385041,2.26083 -0.268089,-0.603604 -3.427358,2.292125 z"
       id="path902" />
    <text
       xml:space="preserve"
       style="font-style:normal;font-weight:normal;font-size:9.87778px;line-height:1.25;font-family:sans-serif;fill:#b955a5;fill-opacity:1;stroke:none;stroke-width:0.264583"
       x="-103.18752"
       y="-11.906255"
       id="text906"><tspan
         sodipodi:role="line"
         id="tspan904"
         x="-103.18752"
         y="-11.906255"
         style="font-style:normal;font-variant:normal;font-weight:normal;font-stretch:normal;font-size:9.87778px;font-family:Arial;-inkscape-font-specification:Arial;fill:#b955a5;fill-opacity:1;stroke-width:0.264583">Fossil fuels</tspan><tspan
         sodipodi:role="line"
         x="-103.18752"
         y="0.5553143"
         style="font-style:normal;font-variant:normal;font-weight:normal;font-stretch:normal;font-size:9.87778px;font-family:Arial;-inkscape-font-specification:Arial;fill:#b955a5;fill-opacity:1;stroke-width:0.264583"
         id="tspan908" /></text>
    <g
       id="g1362"
       transform="translate(-21.695841)">
      <path
         id="path872"
         style="fill:#9fed69;fill-opacity:1;stroke:#c76642;stroke-width:3;stroke-linecap:round;stroke-miterlimit:4;stroke-dasharray:none;stroke-opacity:1"
         d="M 197.37503,-28.045832 A 83.079168,83.079168 0 0 0 114.3,55.033334 a 83.079168,83.079168 0 0 0 83.07917,83.079166 83.079168,83.079168 0 0 0 83.07916,-83.079166 83.079168,83.079168 0 0 0 -83.07916,-83.079166 83.079168,83.079168 0 0 0 -0.004,0 z m 0.004,17.991666 a 65.087502,65.087502 0 0 1 65.0875,65.0875 65.087502,65.087502 0 0 1 -65.0875,65.087506 65.087502,65.087502 0 0 1 -65.0875,-65.087506 65.087502,65.087502 0 0 1 65.0875,-65.0875 z" />
      <text
         xml:space="preserve"
         style="font-style:normal;font-weight:normal;font-size:9.87778px;line-height:1.25;font-family:sans-serif;fill:#000000;fill-opacity:1;stroke:none;stroke-width:0.264583"
         x="183.71281"
         y="131.7625"
         id="text916"><tspan
           sodipodi:role="line"
           id="tspan914"
           x="183.71281"
           y="131.7625"
           style="font-style:normal;font-variant:normal;font-weight:normal;font-stretch:normal;font-size:9.87778px;font-family:Arial;-inkscape-font-specification:Arial;fill:#000000;fill-opacity:1;stroke-width:0.264583">Waste</tspan><tspan
           sodipodi:role="line"
           x="183.71281"
           y="144.22406"
           style="font-style:normal;font-variant:normal;font-weight:normal;font-stretch:normal;font-size:9.87778px;font-family:Arial;-inkscape-font-specification:Arial;fill:#000000;fill-opacity:1;stroke-width:0.264583"
           id="tspan922" /></text>
      <text
         xml:space="preserve"
         style="font-style:normal;font-weight:normal;font-size:9.87778px;line-height:1.25;font-family:sans-serif;fill:#b955a5;fill-opacity:1;stroke:none;stroke-width:0.264583"
         x="175.35674"
         y="-13.229168"
         id="text920"><tspan
           sodipodi:role="line"
           id="tspan918"
           x="175.35674"
           y="-13.229168"
           style="font-style:normal;font-variant:normal;font-weight:normal;font-stretch:normal;font-size:9.87778px;font-family:Arial;-inkscape-font-specification:Arial;fill:#b955a5;fill-opacity:1;stroke-width:0.264583">Extraction</tspan></text>
      <path
         style="fill:#b955a5;fill-opacity:1;stroke:#ae968b;stroke-width:1;stroke-linecap:butt;stroke-linejoin:miter;stroke-miterlimit:4;stroke-dasharray:none;stroke-opacity:1;marker-end:url(#Arrow1Mend)"
         d="m 221.47579,-14.988107 26.89229,13.1901537"
         id="path924" />
      <path
         style="fill:#000000;fill-opacity:1;stroke:#000000;stroke-width:1;stroke-linecap:butt;stroke-linejoin:miter;stroke-miterlimit:4;stroke-dasharray:none;stroke-opacity:1;marker-end:url(#marker1268)"
         d="M 180.59636,128.26679 153.70407,115.07664"
         id="path1264" />
    </g>
  </g>
</svg>
