<?xml version="1.0" encoding="UTF-8" standalone="no"?>
<svg
   xmlns:dc="http://purl.org/dc/elements/1.1/"
   xmlns:cc="http://creativecommons.org/ns#"
   xmlns:rdf="http://www.w3.org/1999/02/22-rdf-syntax-ns#"
   xmlns:svg="http://www.w3.org/2000/svg"
   xmlns="http://www.w3.org/2000/svg"
   xmlns:xlink="http://www.w3.org/1999/xlink"
   xmlns:sodipodi="http://sodipodi.sourceforge.net/DTD/sodipodi-0.dtd"
   xmlns:inkscape="http://www.inkscape.org/namespaces/inkscape"
   width="210mm"
   height="297mm"
   viewBox="0 0 210 297"
   version="1.1"
   id="svg8"
   inkscape:version="1.0.1 (c497b03c, 2020-09-10)"
   sodipodi:docname="globe.svg">
  <defs
     id="defs2">
    <linearGradient
       inkscape:collect="always"
       id="linearGradient912">
      <stop
         style="stop-color:#ded9b9;stop-opacity:1"
         offset="0"
         id="stop904" />
      <stop
         style="stop-color:#e5ba28;stop-opacity:1"
         offset="0.7278536"
         id="stop906" />
      <stop
         style="stop-color:#edc749;stop-opacity:1"
         offset="1"
         id="stop910" />
    </linearGradient>
    <linearGradient
       inkscape:collect="always"
       id="linearGradient2581">
      <stop
         style="stop-color:#8679da;stop-opacity:1"
         offset="0"
         id="stop2577" />
      <stop
         style="stop-color:#506570;stop-opacity:1"
         offset="0.7311886"
         id="stop2587" />
      <stop
         style="stop-color:#0ad4f7;stop-opacity:1"
         offset="0.84825802"
         id="stop2585" />
      <stop
         style="stop-color:#ffffff;stop-opacity:1"
         offset="1"
         id="stop2579" />
    </linearGradient>
    <radialGradient
       inkscape:collect="always"
       xlink:href="#linearGradient2581"
       id="radialGradient2583"
       cx="5.3693075"
       cy="-6.3443627"
       fx="5.3693075"
       fy="-6.3443627"
       r="128"
       gradientUnits="userSpaceOnUse"
       gradientTransform="matrix(1.1984923,0.31203923,-0.27955898,1.0737409,-2.5019984,-1.0887233)" />
    <radialGradient
       inkscape:collect="always"
       xlink:href="#linearGradient912"
       id="radialGradient2653"
       gradientUnits="userSpaceOnUse"
       gradientTransform="matrix(0.39367686,0.10249764,-0.09182863,0.35269892,-0.82184836,-0.35762031)"
       cx="5.3693075"
       cy="-6.3443627"
       fx="5.3693075"
       fy="-6.3443627"
       r="128" />
    <radialGradient
       inkscape:collect="always"
       xlink:href="#linearGradient2581"
       id="radialGradient2655"
       gradientUnits="userSpaceOnUse"
       gradientTransform="matrix(0.39367687,0.10249764,-0.09182863,0.35269893,-0.82184836,-0.35762031)"
       cx="5.3693075"
       cy="-6.3443627"
       fx="5.3693075"
       fy="-6.3443627"
       r="128" />
    <radialGradient
       inkscape:collect="always"
       xlink:href="#linearGradient2581"
       id="radialGradient2662"
       gradientUnits="userSpaceOnUse"
       gradientTransform="matrix(1.1984923,0.31203923,-0.27955898,1.0737409,-2.5019984,-1.0887233)"
       cx="5.3693075"
       cy="-6.3443627"
       fx="5.3693075"
       fy="-6.3443627"
       r="128" />
  </defs>
  <sodipodi:namedview
     id="base"
     pagecolor="#ffffff"
     bordercolor="#666666"
     borderopacity="1.0"
     inkscape:pageopacity="0.0"
     inkscape:pageshadow="2"
     inkscape:zoom="0.48403101"
     inkscape:cx="1.3056933e-09"
     inkscape:cy="-2.1855589e-05"
     inkscape:document-units="mm"
     inkscape:current-layer="layer5"
     inkscape:document-rotation="0"
     showgrid="false"
     showborder="false"
     inkscape:window-width="2048"
     inkscape:window-height="1099"
     inkscape:window-x="0"
     inkscape:window-y="25"
     inkscape:window-maximized="0"
     inkscape:snap-intersection-paths="true"
     inkscape:snap-nodes="false"
     showguides="true"
     inkscape:guide-bbox="true">
    <sodipodi:guide
       position="0,297"
       orientation="0,1"
       id="guide6325"
       inkscape:label=""
       inkscape:locked="false"
       inkscape:color="rgb(0,0,255)" />
    <sodipodi:guide
       position="0,297"
       orientation="-1,0"
       id="guide6327"
       inkscape:label=""
       inkscape:locked="false"
       inkscape:color="rgb(0,0,255)" />
    <sodipodi:guide
       position="0,297"
       orientation="0.98480775,0.17364818"
       id="guide6329"
       inkscape:label=""
       inkscape:locked="false"
       inkscape:color="rgb(0,0,255)" />
    <sodipodi:guide
       position="0,297"
       orientation="0.9961947,0.087155743"
       id="guide6331"
       inkscape:label=""
       inkscape:locked="false"
       inkscape:color="rgb(0,0,255)" />
  </sodipodi:namedview>
  <metadata
     id="metadata5">
    <rdf:RDF>
      <cc:Work
         rdf:about="">
        <dc:format>image/svg+xml</dc:format>
        <dc:type
           rdf:resource="http://purl.org/dc/dcmitype/StillImage" />
        <dc:title />
      </cc:Work>
    </rdf:RDF>
  </metadata>
  <g
     inkscape:label="lines"
     inkscape:groupmode="layer"
     id="layer1"
     style="display:none;opacity:0.327974"
     sodipodi:insensitive="true">
    <circle
       style="fill:none;stroke:#ff0000;stroke-width:0.999999;stroke-linecap:round"
       id="path833"
       cx="-9.4739036e-16"
       cy="-5.0663948e-07"
       r="127.5" />
    <ellipse
       style="fill:none;stroke:#ff0000;stroke-width:0.999997;stroke-linecap:round"
       id="circle839"
       cx="0"
       cy="-5.0663948e-07"
       rx="63.5"
       ry="127.5" />
    <ellipse
       style="fill:none;stroke:#ff0000;stroke-width:0.999997;stroke-linecap:round"
       id="ellipse841"
       cx="-5.0663948e-07"
       cy="-9.4739036e-16"
       rx="63.5"
       ry="127.5"
       transform="rotate(90)" />
    <path
       style="display:inline;opacity:1;fill:url(#radialGradient2655);fill-opacity:1;stroke:#000000;stroke-width:1;stroke-linecap:round"
       d="M -0.0101847,-41.880861 A 41.880787,41.880787 0 0 0 -41.880861,0 41.880787,41.880787 0 0 0 0,41.880861 41.880787,41.880787 0 0 0 41.880861,0.0308936 41.880784,20.858274 0 0 1 18.670939,18.67077 41.880783,20.858274 0 0 1 0,20.858274 41.880783,20.858274 0 0 1 -18.67077,18.670939 20.858274,41.880783 0 0 1 -20.858274,0 a 20.858274,41.880783 0 0 1 2.187335,-18.67077 20.858274,41.880784 0 0 1 18.6607543,-23.210091 z"
       id="path2645" />
    <path
       style="display:inline;opacity:1;fill:url(#radialGradient2662);fill-opacity:1;stroke:#000000;stroke-width:0.999998;stroke-linecap:round"
       d="M 0.09405111,-127.50022 A 63.499999,127.49999 0 0 1 56.840458,-56.840974 127.49999,63.499999 0 0 1 127.50022,-0.03100586 127.5,127.5 0 0 0 0.09405111,-127.50022 Z"
       id="path2598" />
    <ellipse
       style="fill:none;stroke:#ff0000;stroke-width:1;stroke-linecap:round"
       id="ellipse3287"
       cx="0"
       cy="-4.8187871e-07"
       rx="60.384377"
       ry="121.26875" />
    <ellipse
       style="fill:none;stroke:#ff0000;stroke-width:1;stroke-linecap:round"
       id="ellipse3290"
       cx="-4.8187871e-07"
       cy="3.5527124e-16"
       rx="60.384377"
       ry="121.26875"
       transform="rotate(90)" />
    <ellipse
       style="display:inline;opacity:0.327974;fill:none;stroke:#ff0000;stroke-width:0.999997;stroke-linecap:round"
       id="ellipse3351"
       cx="-4.8187871e-07"
       cy="3.4156879e-16"
       rx="58.045769"
       ry="116.59154"
       transform="rotate(90)" />
    <ellipse
       style="fill:none;stroke:#ff0000;stroke-width:1;stroke-linecap:round"
       id="ellipse6333"
       cx="0"
       cy="-4.2518292e-07"
       rx="53.250393"
       ry="107.00079" />
  </g>
  <g
     inkscape:groupmode="layer"
     id="layer2"
     inkscape:label="main"
     style="display:inline;opacity:1">
    <path
       style="fill:url(#radialGradient2583);fill-opacity:1;stroke:none;stroke-width:0.999998;stroke-linecap:round"
       d="M -0.03100586,-127.50022 A 127.5,127.5 0 0 0 -127.50022,0 127.5,127.5 0 0 0 0,127.50022 127.5,127.5 0 0 0 127.50022,0.09405111 127.49999,63.499999 0 0 1 56.840974,56.840458 127.49999,63.499999 0 0 1 0,63.499999 127.49999,63.499999 0 0 1 -56.840458,56.840974 63.499999,127.49999 0 0 1 -63.499999,0 a 63.499999,127.49999 0 0 1 6.659025,-56.840458 63.499999,127.49999 0 0 1 56.80996814,-70.659762 z"
       id="circle843" />
    <path
       style="display:inline;fill:#e89d40;fill-opacity:1;stroke:none;stroke-width:0.999998;stroke-linecap:round"
       d="M 56.840458,-56.840974 -56.840458,56.840974 A 127.49999,63.499999 0 0 0 0,63.499999 127.49999,63.499999 0 0 0 56.840974,56.840458 127.49999,63.499999 0 0 0 127.50022,0 127.49999,63.499999 0 0 0 56.840458,-56.840974 Z"
       id="path897" />
    <path
       style="display:inline;fill:#df5d36;fill-opacity:1;stroke:none;stroke-width:0.999998;stroke-linecap:round"
       d="M 0,-127.50022 A 63.499999,127.49999 0 0 0 -56.840974,-56.840458 63.499999,127.49999 0 0 0 -63.499999,0 63.499999,127.49999 0 0 0 -56.840458,56.840974 L 56.840458,-56.840974 A 63.499999,127.49999 0 0 0 0,-127.50022 Z"
       id="ellipse845" />
    <path
       style="display:inline;fill:#e89d40;fill-opacity:1;stroke:none;stroke-width:0.999994;stroke-linecap:round"
       d="M 0,-89.313519 A 44.481558,89.313358 0 0 0 -39.816931,-39.816569 44.481558,89.313358 0 0 0 -44.481558,0 44.481558,89.313358 0 0 0 -39.816569,39.816931 L 39.816569,-39.816931 A 44.481558,89.313358 0 0 0 0,-89.313519 Z"
       id="path871" />
    <path
       style="display:inline;fill:#edc749;fill-opacity:1;stroke:none;stroke-width:0.999994;stroke-linecap:round"
       d="M 39.816569,-39.816931 -39.816569,39.816931 A 89.313358,44.481558 0 0 0 0,44.481558 89.313358,44.481558 0 0 0 39.816931,39.816569 89.313358,44.481558 0 0 0 89.313519,0 89.313358,44.481558 0 0 0 39.816569,-39.816931 Z"
       id="path869" />
    <path
       style="fill:url(#radialGradient2653);fill-opacity:1;stroke:none;stroke-width:1;stroke-linecap:round"
       d="M 0,-41.880744 A 20.858275,41.880785 0 0 0 -18.670884,-18.670884 20.858275,41.880784 0 0 0 -20.858299,0 20.858275,41.880784 0 0 0 -18.670884,18.670884 41.880784,20.858275 0 0 0 0,20.858299 41.880784,20.858275 0 0 0 18.670884,18.670884 41.880785,20.858275 0 0 0 41.880744,0 a 41.880785,20.858275 0 0 0 -6.4e-4,-0.1196524 41.880785,20.858275 0 0 0 -0.0018,-0.10251625 41.880784,20.858275 0 0 1 0.0018,0.10251625 41.880784,20.858275 0 0 1 6.4e-4,0.06824396 41.880787,41.880787 0 0 0 -41.84166156,-41.82933556 20.858275,41.880784 0 0 0 -0.003307,0 20.858275,41.880785 0 0 0 -0.03577544,0 z"
       id="path2643" />
  </g>
  <g
     inkscape:groupmode="layer"
     id="layer4"
     inkscape:label="crust"
     style="display:inline">
    <path
       id="ellipse3355"
       style="display:inline;opacity:1;fill:#627352;fill-opacity:1;stroke:none;stroke-width:3.77952;stroke-linecap:round"
       d="M 0,-481.89062 A 240,481.88975 0 0 0 -240,0 a 240,481.88975 0 0 0 25.16992,214.83789 l 18.43946,-18.43945 A 219.38558,440.66093 0 0 1 -219.38477,0 219.38558,440.66093 0 0 1 0,-440.66016 219.38558,440.66093 0 0 1 196.39062,-196.39844 l 18.43946,-18.43945 A 240,481.88975 0 0 0 0,-481.89062 Z"
       transform="scale(0.26458333)" />
    <path
       id="path3363"
       style="display:inline;opacity:1;fill:#7b8f67;fill-opacity:1;stroke:none;stroke-width:3.77952;stroke-linecap:round"
       d="m 214.82422,-214.83203 -18.4336,18.43359 -0.006,0.006 A 440.66094,219.38558 0 0 1 440.66016,0 440.66094,219.38558 0 0 1 0,219.38477 440.66094,219.38558 0 0 1 -196.38477,196.39258 l -0.006,0.006 -18.4336,18.43359 A 481.88976,240 0 0 0 0,240 481.88976,240 0 0 0 481.89062,0 481.88976,240 0 0 0 214.82422,-214.83203 Z"
       transform="scale(0.26458333)" />
  </g>
  <g
     inkscape:groupmode="layer"
     id="layer3"
     inkscape:label="atmosphere"
     style="display:inline">
    <path
       id="ellipse3292"
       style="display:inline;opacity:1;fill:#cccccc;stroke:none;stroke-width:3.77952;stroke-linecap:round"
       d="M 0,-481.89062 A 240,481.88974 0 0 0 -240,0 a 240,481.88974 0 0 0 25.16992,214.83789 l 5.875,-5.87305 A 233.43274,468.75522 0 0 1 -233.43359,0 233.43274,468.75522 0 0 1 -0.46484375,-468.75391 a 233.43274,468.75522 0 0 1 0.015625,0 233.43274,468.75522 0 0 1 0.44921875,0 233.43274,468.75522 0 0 1 208.95508,259.78907 l 5.875,-5.87305 A 240,481.88974 0 0 0 0,-481.89062 Z"
       transform="scale(0.26458333)" />
    <path
       id="path3338"
       style="display:inline;opacity:1;fill:#f2f2f2;stroke:none;stroke-width:3.77952;stroke-linecap:round"
       d="m 214.82422,-214.83203 -5.86914,5.86719 -0.006,0.006 A 468.75523,233.43274 0 0 1 468.75391,0 468.75523,233.43274 0 0 1 0,233.43359 468.75523,233.43274 0 0 1 -208.94922,208.95898 l -0.006,0.006 -5.86914,5.86719 A 481.88973,240 0 0 0 0,240 481.88973,240 0 0 0 481.89062,0 481.88973,240 0 0 0 214.82422,-214.83203 Z"
       transform="scale(0.26458333)" />
    <path
       style="opacity:1;fill:#f9f9f9;stroke:#000000;stroke-width:0.264583px;stroke-linecap:butt;stroke-linejoin:miter;stroke-opacity:1"
       d="M -56.840201,56.842614 Z"
       id="path3340" />
  </g>
  <g
     inkscape:groupmode="layer"
     id="layer5"
     inkscape:label="section"
     style="display:inline">
    <path
       style="display:inline;opacity:0.5;fill:#ffffff;stroke:none;stroke-width:3.77952;stroke-linecap:round"
       d="m 0,-481.89062 c -0.3483083,-2.2e-4 -0.69661642,0.001 -1.0449219,0.004 -29.1093491,0.0628 -58.1332921,2.76302 -86.7173101,8.05699 -19.539128,2.52508 -35.197268,13.86272 -42.905738,25.82778 l 50.558595,-6.25 0.01172,-0.008 12.882812,73.06641 h 0.002 C -45.629071,-396.55964 -22.898504,-404.41193 0,-404.41211 Z"
       id="ellipse6336"
       transform="scale(0.26458333)"
       sodipodi:nodetypes="cccccccccc" />
  </g>
</svg>
